<?xml version="1.0" encoding="UTF-8"?>
<svg xmlns="http://www.w3.org/2000/svg" xmlns:xlink="http://www.w3.org/1999/xlink" viewBox="0 0 100 100" width="100px" height="100px">
<g id="surface127563859">
<path style=" stroke:none;fill-rule:nonzero;fill:rgb(41.960785%,51.764709%,56.470591%);fill-opacity:1;" d="M 76.257812 24.007812 C 76.257812 24.007812 88 37.609375 88 62.105469 L 88 67.242188 C 88 67.242188 73.171875 76.90625 68.652344 76.90625 L 64.269531 70.53125 C 66.992188 69.3125 70.710938 67.195312 70.710938 67.195312 L 69.351562 66.140625 C 69.351562 66.140625 60.664062 70.164062 50.003906 70.164062 C 39.339844 70.164062 30.652344 66.140625 30.652344 66.140625 L 29.292969 67.195312 C 29.292969 67.195312 33.011719 69.3125 35.734375 70.53125 L 31.351562 76.90625 C 26.828125 76.902344 12 67.238281 12 67.238281 L 12 62.105469 C 12 37.605469 23.742188 24.007812 23.742188 24.007812 C 23.742188 24.007812 31.773438 20.117188 39.191406 19.09375 L 41.492188 23.457031 C 41.492188 23.457031 45.152344 22.609375 50.003906 22.609375 C 54.851562 22.609375 58.511719 23.457031 58.511719 23.457031 L 60.8125 19.09375 C 68.226562 20.121094 76.257812 24.007812 76.257812 24.007812 Z M 37.347656 58.523438 C 41.085938 58.523438 44.117188 55.121094 44.117188 50.921875 C 44.117188 46.722656 41.085938 43.320312 37.347656 43.320312 C 33.609375 43.320312 30.578125 46.722656 30.578125 50.921875 C 30.578125 55.121094 33.609375 58.523438 37.347656 58.523438 Z M 62.652344 58.523438 C 66.390625 58.523438 69.421875 55.121094 69.421875 50.921875 C 69.421875 46.722656 66.390625 43.320312 62.652344 43.320312 C 58.914062 43.320312 55.882812 46.722656 55.882812 50.921875 C 55.886719 55.121094 58.914062 58.523438 62.652344 58.523438 Z M 62.652344 58.523438 "/>
</g>
</svg>
